<?xml version="1.0" encoding="UTF-8" standalone="no"?>
<!DOCTYPE svg PUBLIC "-//W3C//DTD SVG 1.1//EN"
 "http://www.w3.org/Graphics/SVG/1.1/DTD/svg11.dtd">
<!-- Generated by graphviz version 2.47.0 (20210316.0004)
 -->
<!-- Title: dependencies Pages: 1 -->
<svg width="1146pt" height="284pt"
 viewBox="0.00 0.00 1146.00 284.00" xmlns="http://www.w3.org/2000/svg" xmlns:xlink="http://www.w3.org/1999/xlink">
<g id="graph0" class="graph" transform="scale(1 1) rotate(0) translate(4 280)">
<title>dependencies</title>
<polygon fill="white" stroke="transparent" points="-4,4 -4,-280 1142,-280 1142,4 -4,4"/>
<text text-anchor="start" x="548.01" y="-42.4" font-family="Times-12" font-weight="bold" font-size="14.00">Legend</text>
<polygon fill="#ffffb3" stroke="transparent" points="335,-10 335,-30 355,-30 355,-10 335,-10"/>
<text text-anchor="start" x="358.63" y="-15.4" font-family="Times-12" font-size="14.00"> &#160;Declarations</text>
<polygon fill="#8dd3c7" stroke="transparent" points="448,-10 448,-30 468,-30 468,-10 448,-10"/>
<text text-anchor="start" x="471.73" y="-15.4" font-family="Times-12" font-size="14.00"> &#160;Module</text>
<polygon fill="#80b1d3" stroke="transparent" points="534,-10 534,-30 554,-30 554,-10 534,-10"/>
<text text-anchor="start" x="557.78" y="-15.4" font-family="Times-12" font-size="14.00"> &#160;Bootstrap</text>
<polygon fill="#fdb462" stroke="transparent" points="631,-10 631,-30 651,-30 651,-10 631,-10"/>
<text text-anchor="start" x="654.67" y="-15.4" font-family="Times-12" font-size="14.00"> &#160;Providers</text>
<polygon fill="#fb8072" stroke="transparent" points="727,-10 727,-30 747,-30 747,-10 727,-10"/>
<text text-anchor="start" x="750.73" y="-15.4" font-family="Times-12" font-size="14.00"> &#160;Exports</text>
<g id="clust1" class="cluster">
<title>cluster_CoreModule</title>
<polygon fill="none" stroke="black" stroke-dasharray="1,5" points="8,-70 8,-268 1130,-268 1130,-70 8,-70"/>
</g>
<g id="clust2" class="cluster">
<title>cluster_CoreModule_declarations</title>
<polygon fill="none" stroke="black" points="395,-78 395,-130 1122,-130 1122,-78 395,-78"/>
</g>
<g id="clust8" class="cluster">
<title>cluster_CoreModule_imports</title>
<polygon fill="none" stroke="black" points="16,-78 16,-130 387,-130 387,-78 16,-78"/>
</g>
<g id="clust9" class="cluster">
<title>cluster_CoreModule_exports</title>
<polygon fill="none" stroke="black" points="416,-208 416,-260 697,-260 697,-208 416,-208"/>
</g>
<!-- FooterComponent -->
<g id="node1" class="node">
<title>FooterComponent</title>
<polygon fill="#ffffb3" stroke="black" points="1113.88,-122 996.12,-122 996.12,-86 1113.88,-86 1113.88,-122"/>
<text text-anchor="middle" x="1055" y="-99.8" font-family="Times,serif" font-size="14.00">FooterComponent</text>
</g>
<!-- CoreModule -->
<g id="node6" class="node">
<title>CoreModule</title>
<polygon fill="#8dd3c7" stroke="black" points="600.26,-187 597.26,-191 576.26,-191 573.26,-187 513.74,-187 513.74,-151 600.26,-151 600.26,-187"/>
<text text-anchor="middle" x="557" y="-164.8" font-family="Times,serif" font-size="14.00">CoreModule</text>
</g>
<!-- FooterComponent&#45;&gt;CoreModule -->
<g id="edge1" class="edge">
<title>FooterComponent&#45;&gt;CoreModule</title>
<path fill="none" stroke="black" d="M1055,-122.29C1055,-144.21 1055,-178 1055,-178 1055,-178 610.32,-178 610.32,-178"/>
<polygon fill="black" stroke="black" points="610.32,-174.5 600.32,-178 610.32,-181.5 610.32,-174.5"/>
</g>
<!-- HeaderComponent -->
<g id="node2" class="node">
<title>HeaderComponent</title>
<polygon fill="#ffffb3" stroke="black" points="977.74,-122 856.26,-122 856.26,-86 977.74,-86 977.74,-122"/>
<text text-anchor="middle" x="917" y="-99.8" font-family="Times,serif" font-size="14.00">HeaderComponent</text>
</g>
<!-- HeaderComponent&#45;&gt;CoreModule -->
<g id="edge2" class="edge">
<title>HeaderComponent&#45;&gt;CoreModule</title>
<path fill="none" stroke="black" d="M917,-122.11C917,-141.34 917,-169 917,-169 917,-169 610.42,-169 610.42,-169"/>
<polygon fill="black" stroke="black" points="610.42,-165.5 600.42,-169 610.42,-172.5 610.42,-165.5"/>
</g>
<!-- MainComponent -->
<g id="node3" class="node">
<title>MainComponent</title>
<polygon fill="#ffffb3" stroke="black" points="838.38,-122 727.62,-122 727.62,-86 838.38,-86 838.38,-122"/>
<text text-anchor="middle" x="783" y="-99.8" font-family="Times,serif" font-size="14.00">MainComponent</text>
</g>
<!-- MainComponent&#45;&gt;CoreModule -->
<g id="edge3" class="edge">
<title>MainComponent&#45;&gt;CoreModule</title>
<path fill="none" stroke="black" d="M783,-122.03C783,-138.4 783,-160 783,-160 783,-160 610.31,-160 610.31,-160"/>
<polygon fill="black" stroke="black" points="610.31,-156.5 600.31,-160 610.31,-163.5 610.31,-156.5"/>
</g>
<!-- MainMenuComponent -->
<g id="node4" class="node">
<title>MainMenuComponent</title>
<polygon fill="#ffffb3" stroke="black" points="709.54,-122 566.46,-122 566.46,-86 709.54,-86 709.54,-122"/>
<text text-anchor="middle" x="638" y="-99.8" font-family="Times,serif" font-size="14.00">MainMenuComponent</text>
</g>
<!-- MainMenuComponent&#45;&gt;CoreModule -->
<g id="edge4" class="edge">
<title>MainMenuComponent&#45;&gt;CoreModule</title>
<path fill="none" stroke="black" d="M583.31,-122.11C583.31,-122.11 583.31,-140.99 583.31,-140.99"/>
<polygon fill="black" stroke="black" points="579.81,-140.99 583.31,-150.99 586.81,-140.99 579.81,-140.99"/>
</g>
<!-- MobileNavComponent -->
<g id="node5" class="node">
<title>MobileNavComponent</title>
<polygon fill="#ffffb3" stroke="black" points="548.59,-122 403.41,-122 403.41,-86 548.59,-86 548.59,-122"/>
<text text-anchor="middle" x="476" y="-99.8" font-family="Times,serif" font-size="14.00">MobileNavComponent</text>
</g>
<!-- MobileNavComponent&#45;&gt;CoreModule -->
<g id="edge5" class="edge">
<title>MobileNavComponent&#45;&gt;CoreModule</title>
<path fill="none" stroke="black" d="M531.08,-122.11C531.08,-122.11 531.08,-140.99 531.08,-140.99"/>
<polygon fill="black" stroke="black" points="527.58,-140.99 531.08,-150.99 534.58,-140.99 527.58,-140.99"/>
</g>
<!-- FooterComponent  -->
<g id="node10" class="node">
<title>FooterComponent </title>
<polygon fill="#fb8072" stroke="black" points="688.88,-252 567.12,-252 567.12,-216 688.88,-216 688.88,-252"/>
<text text-anchor="middle" x="628" y="-229.8" font-family="Times,serif" font-size="14.00">FooterComponent </text>
</g>
<!-- CoreModule&#45;&gt;FooterComponent  -->
<g id="edge9" class="edge">
<title>CoreModule&#45;&gt;FooterComponent </title>
<path fill="none" stroke="black" stroke-dasharray="5,2" d="M583.85,-187.11C583.85,-187.11 583.85,-205.99 583.85,-205.99"/>
<polygon fill="black" stroke="black" points="580.35,-205.99 583.85,-215.99 587.35,-205.99 580.35,-205.99"/>
</g>
<!-- HeaderComponent  -->
<g id="node11" class="node">
<title>HeaderComponent </title>
<polygon fill="#fb8072" stroke="black" points="549.74,-252 424.26,-252 424.26,-216 549.74,-216 549.74,-252"/>
<text text-anchor="middle" x="487" y="-229.8" font-family="Times,serif" font-size="14.00">HeaderComponent </text>
</g>
<!-- CoreModule&#45;&gt;HeaderComponent  -->
<g id="edge10" class="edge">
<title>CoreModule&#45;&gt;HeaderComponent </title>
<path fill="none" stroke="black" stroke-dasharray="5,2" d="M531.62,-187.11C531.62,-187.11 531.62,-205.99 531.62,-205.99"/>
<polygon fill="black" stroke="black" points="528.12,-205.99 531.62,-215.99 535.12,-205.99 528.12,-205.99"/>
</g>
<!-- CoreRoutingModule -->
<g id="node7" class="node">
<title>CoreRoutingModule</title>
<polygon fill="#8dd3c7" stroke="black" points="378.88,-122 375.88,-126 354.88,-126 351.88,-122 247.12,-122 247.12,-86 378.88,-86 378.88,-122"/>
<text text-anchor="middle" x="313" y="-99.8" font-family="Times,serif" font-size="14.00">CoreRoutingModule</text>
</g>
<!-- CoreRoutingModule&#45;&gt;CoreModule -->
<g id="edge6" class="edge">
<title>CoreRoutingModule&#45;&gt;CoreModule</title>
<path fill="none" stroke="black" d="M313,-122.03C313,-138.4 313,-160 313,-160 313,-160 503.66,-160 503.66,-160"/>
<polygon fill="black" stroke="black" points="503.66,-163.5 513.66,-160 503.66,-156.5 503.66,-163.5"/>
</g>
<!-- I18nModule -->
<g id="node8" class="node">
<title>I18nModule</title>
<polygon fill="#8dd3c7" stroke="black" points="228.71,-122 225.71,-126 204.71,-126 201.71,-122 143.29,-122 143.29,-86 228.71,-86 228.71,-122"/>
<text text-anchor="middle" x="186" y="-99.8" font-family="Times,serif" font-size="14.00">I18nModule</text>
</g>
<!-- I18nModule&#45;&gt;CoreModule -->
<g id="edge7" class="edge">
<title>I18nModule&#45;&gt;CoreModule</title>
<path fill="none" stroke="black" d="M186,-122.11C186,-141.34 186,-169 186,-169 186,-169 503.72,-169 503.72,-169"/>
<polygon fill="black" stroke="black" points="503.72,-172.5 513.72,-169 503.72,-165.5 503.72,-172.5"/>
</g>
<!-- ModalsModule -->
<g id="node9" class="node">
<title>ModalsModule</title>
<polygon fill="#8dd3c7" stroke="black" points="125.55,-122 122.55,-126 101.55,-126 98.55,-122 24.45,-122 24.45,-86 125.55,-86 125.55,-122"/>
<text text-anchor="middle" x="75" y="-99.8" font-family="Times,serif" font-size="14.00">ModalsModule</text>
</g>
<!-- ModalsModule&#45;&gt;CoreModule -->
<g id="edge8" class="edge">
<title>ModalsModule&#45;&gt;CoreModule</title>
<path fill="none" stroke="black" d="M75,-122.29C75,-144.21 75,-178 75,-178 75,-178 503.38,-178 503.38,-178"/>
<polygon fill="black" stroke="black" points="503.38,-181.5 513.38,-178 503.38,-174.5 503.38,-181.5"/>
</g>
</g>
</svg>
