<?xml version="1.0" encoding="UTF-8" standalone="no"?>
<!DOCTYPE svg PUBLIC "-//W3C//DTD SVG 1.1//EN"
 "http://www.w3.org/Graphics/SVG/1.1/DTD/svg11.dtd">
<!-- Generated by graphviz version 2.47.0 (20210316.0004)
 -->
<!-- Title: dependencies Pages: 1 -->
<svg width="504pt" height="211pt"
 viewBox="0.00 0.00 504.00 211.00" xmlns="http://www.w3.org/2000/svg" xmlns:xlink="http://www.w3.org/1999/xlink">
<g id="graph0" class="graph" transform="scale(1 1) rotate(0) translate(4 207)">
<title>dependencies</title>
<polygon fill="white" stroke="transparent" points="-4,4 -4,-207 500,-207 500,4 -4,4"/>
<text text-anchor="start" x="227.01" y="-42.4" font-family="Times-12" font-weight="bold" font-size="14.00">Legend</text>
<polygon fill="#ffffb3" stroke="transparent" points="14,-10 14,-30 34,-30 34,-10 14,-10"/>
<text text-anchor="start" x="37.63" y="-15.4" font-family="Times-12" font-size="14.00"> &#160;Declarations</text>
<polygon fill="#8dd3c7" stroke="transparent" points="127,-10 127,-30 147,-30 147,-10 127,-10"/>
<text text-anchor="start" x="150.73" y="-15.4" font-family="Times-12" font-size="14.00"> &#160;Module</text>
<polygon fill="#80b1d3" stroke="transparent" points="213,-10 213,-30 233,-30 233,-10 213,-10"/>
<text text-anchor="start" x="236.78" y="-15.4" font-family="Times-12" font-size="14.00"> &#160;Bootstrap</text>
<polygon fill="#fdb462" stroke="transparent" points="310,-10 310,-30 330,-30 330,-10 310,-10"/>
<text text-anchor="start" x="333.67" y="-15.4" font-family="Times-12" font-size="14.00"> &#160;Providers</text>
<polygon fill="#fb8072" stroke="transparent" points="406,-10 406,-30 426,-30 426,-10 406,-10"/>
<text text-anchor="start" x="429.73" y="-15.4" font-family="Times-12" font-size="14.00"> &#160;Exports</text>
<g id="clust1" class="cluster">
<title>cluster_ProfileModule</title>
<polygon fill="none" stroke="black" stroke-dasharray="1,5" points="83,-70 83,-195 413,-195 413,-70 83,-70"/>
</g>
<g id="clust2" class="cluster">
<title>cluster_ProfileModule_declarations</title>
<polygon fill="none" stroke="black" points="91,-78 91,-130 405,-130 405,-78 91,-78"/>
</g>
<!-- ProfileComponent -->
<g id="node1" class="node">
<title>ProfileComponent</title>
<polygon fill="#ffffb3" stroke="black" points="396.93,-122 277.07,-122 277.07,-86 396.93,-86 396.93,-122"/>
<text text-anchor="middle" x="337" y="-99.8" font-family="Times,serif" font-size="14.00">ProfileComponent</text>
</g>
<!-- ProfileModule -->
<g id="node3" class="node">
<title>ProfileModule</title>
<polygon fill="#8dd3c7" stroke="black" points="306.65,-187 303.65,-191 282.65,-191 279.65,-187 209.35,-187 209.35,-151 306.65,-151 306.65,-187"/>
<text text-anchor="middle" x="258" y="-164.8" font-family="Times,serif" font-size="14.00">ProfileModule</text>
</g>
<!-- ProfileComponent&#45;&gt;ProfileModule -->
<g id="edge1" class="edge">
<title>ProfileComponent&#45;&gt;ProfileModule</title>
<path fill="none" stroke="black" d="M292.05,-122.11C292.05,-122.11 292.05,-140.99 292.05,-140.99"/>
<polygon fill="black" stroke="black" points="288.55,-140.99 292.05,-150.99 295.55,-140.99 288.55,-140.99"/>
</g>
<!-- ProfileHeaderComponent -->
<g id="node2" class="node">
<title>ProfileHeaderComponent</title>
<polygon fill="#ffffb3" stroke="black" points="258.84,-122 99.16,-122 99.16,-86 258.84,-86 258.84,-122"/>
<text text-anchor="middle" x="179" y="-99.8" font-family="Times,serif" font-size="14.00">ProfileHeaderComponent</text>
</g>
<!-- ProfileHeaderComponent&#45;&gt;ProfileModule -->
<g id="edge2" class="edge">
<title>ProfileHeaderComponent&#45;&gt;ProfileModule</title>
<path fill="none" stroke="black" d="M234.05,-122.11C234.05,-122.11 234.05,-140.99 234.05,-140.99"/>
<polygon fill="black" stroke="black" points="230.55,-140.99 234.05,-150.99 237.55,-140.99 230.55,-140.99"/>
</g>
</g>
</svg>
