<?xml version="1.0" encoding="UTF-8" standalone="no"?>
<!DOCTYPE svg PUBLIC "-//W3C//DTD SVG 1.1//EN"
 "http://www.w3.org/Graphics/SVG/1.1/DTD/svg11.dtd">
<!-- Generated by graphviz version 2.47.0 (20210316.0004)
 -->
<!-- Title: dependencies Pages: 1 -->
<svg width="919pt" height="211pt"
 viewBox="0.00 0.00 919.00 211.00" xmlns="http://www.w3.org/2000/svg" xmlns:xlink="http://www.w3.org/1999/xlink">
<g id="graph0" class="graph" transform="scale(1 1) rotate(0) translate(4 207)">
<title>dependencies</title>
<polygon fill="white" stroke="transparent" points="-4,4 -4,-207 915,-207 915,4 -4,4"/>
<text text-anchor="start" x="434.51" y="-42.4" font-family="Times-12" font-weight="bold" font-size="14.00">Legend</text>
<polygon fill="#ffffb3" stroke="transparent" points="221.5,-10 221.5,-30 241.5,-30 241.5,-10 221.5,-10"/>
<text text-anchor="start" x="245.13" y="-15.4" font-family="Times-12" font-size="14.00"> &#160;Declarations</text>
<polygon fill="#8dd3c7" stroke="transparent" points="334.5,-10 334.5,-30 354.5,-30 354.5,-10 334.5,-10"/>
<text text-anchor="start" x="358.23" y="-15.4" font-family="Times-12" font-size="14.00"> &#160;Module</text>
<polygon fill="#80b1d3" stroke="transparent" points="420.5,-10 420.5,-30 440.5,-30 440.5,-10 420.5,-10"/>
<text text-anchor="start" x="444.28" y="-15.4" font-family="Times-12" font-size="14.00"> &#160;Bootstrap</text>
<polygon fill="#fdb462" stroke="transparent" points="517.5,-10 517.5,-30 537.5,-30 537.5,-10 517.5,-10"/>
<text text-anchor="start" x="541.17" y="-15.4" font-family="Times-12" font-size="14.00"> &#160;Providers</text>
<polygon fill="#fb8072" stroke="transparent" points="613.5,-10 613.5,-30 633.5,-30 633.5,-10 613.5,-10"/>
<text text-anchor="start" x="637.23" y="-15.4" font-family="Times-12" font-size="14.00"> &#160;Exports</text>
<g id="clust1" class="cluster">
<title>cluster_StarterModule</title>
<polygon fill="none" stroke="black" stroke-dasharray="1,5" points="8,-70 8,-195 903,-195 903,-70 8,-70"/>
</g>
<g id="clust2" class="cluster">
<title>cluster_StarterModule_declarations</title>
<polygon fill="none" stroke="black" points="588,-78 588,-130 895,-130 895,-78 588,-78"/>
</g>
<g id="clust5" class="cluster">
<title>cluster_StarterModule_imports</title>
<polygon fill="none" stroke="black" points="198,-78 198,-130 580,-130 580,-78 198,-78"/>
</g>
<g id="clust8" class="cluster">
<title>cluster_StarterModule_providers</title>
<polygon fill="none" stroke="black" points="16,-78 16,-130 190,-130 190,-78 16,-78"/>
</g>
<!-- StarterComponent -->
<g id="node1" class="node">
<title>StarterComponent</title>
<polygon fill="#ffffb3" stroke="black" points="887.15,-122 768.85,-122 768.85,-86 887.15,-86 887.15,-122"/>
<text text-anchor="middle" x="828" y="-99.8" font-family="Times,serif" font-size="14.00">StarterComponent</text>
</g>
<!-- StarterModule -->
<g id="node3" class="node">
<title>StarterModule</title>
<polygon fill="#8dd3c7" stroke="black" points="521.36,-187 518.36,-191 497.36,-191 494.36,-187 424.64,-187 424.64,-151 521.36,-151 521.36,-187"/>
<text text-anchor="middle" x="473" y="-164.8" font-family="Times,serif" font-size="14.00">StarterModule</text>
</g>
<!-- StarterComponent&#45;&gt;StarterModule -->
<g id="edge1" class="edge">
<title>StarterComponent&#45;&gt;StarterModule</title>
<path fill="none" stroke="black" d="M828,-122.28C828,-143.32 828,-175 828,-175 828,-175 531.62,-175 531.62,-175"/>
<polygon fill="black" stroke="black" points="531.62,-171.5 521.62,-175 531.62,-178.5 531.62,-171.5"/>
</g>
<!-- StarterFiltersComponent -->
<g id="node2" class="node">
<title>StarterFiltersComponent</title>
<polygon fill="#ffffb3" stroke="black" points="750.42,-122 595.58,-122 595.58,-86 750.42,-86 750.42,-122"/>
<text text-anchor="middle" x="673" y="-99.8" font-family="Times,serif" font-size="14.00">StarterFiltersComponent</text>
</g>
<!-- StarterFiltersComponent&#45;&gt;StarterModule -->
<g id="edge2" class="edge">
<title>StarterFiltersComponent&#45;&gt;StarterModule</title>
<path fill="none" stroke="black" d="M673,-122.02C673,-139.37 673,-163 673,-163 673,-163 531.41,-163 531.41,-163"/>
<polygon fill="black" stroke="black" points="531.41,-159.5 521.41,-163 531.41,-166.5 531.41,-159.5"/>
</g>
<!-- CoreModule -->
<g id="node4" class="node">
<title>CoreModule</title>
<polygon fill="#8dd3c7" stroke="black" points="572.26,-122 569.26,-126 548.26,-126 545.26,-122 485.74,-122 485.74,-86 572.26,-86 572.26,-122"/>
<text text-anchor="middle" x="529" y="-99.8" font-family="Times,serif" font-size="14.00">CoreModule</text>
</g>
<!-- CoreModule&#45;&gt;StarterModule -->
<g id="edge3" class="edge">
<title>CoreModule&#45;&gt;StarterModule</title>
<path fill="none" stroke="black" d="M503.53,-122.11C503.53,-122.11 503.53,-140.99 503.53,-140.99"/>
<polygon fill="black" stroke="black" points="500.03,-140.99 503.53,-150.99 507.03,-140.99 500.03,-140.99"/>
</g>
<!-- ModalsModule -->
<g id="node5" class="node">
<title>ModalsModule</title>
<polygon fill="#8dd3c7" stroke="black" points="467.55,-122 464.55,-126 443.55,-126 440.55,-122 366.45,-122 366.45,-86 467.55,-86 467.55,-122"/>
<text text-anchor="middle" x="417" y="-99.8" font-family="Times,serif" font-size="14.00">ModalsModule</text>
</g>
<!-- ModalsModule&#45;&gt;StarterModule -->
<g id="edge4" class="edge">
<title>ModalsModule&#45;&gt;StarterModule</title>
<path fill="none" stroke="black" d="M446.17,-122.11C446.17,-122.11 446.17,-140.99 446.17,-140.99"/>
<polygon fill="black" stroke="black" points="442.67,-140.99 446.17,-150.99 449.67,-140.99 442.67,-140.99"/>
</g>
<!-- StarterRoutingModule -->
<g id="node6" class="node">
<title>StarterRoutingModule</title>
<polygon fill="#8dd3c7" stroke="black" points="347.98,-122 344.98,-126 323.98,-126 320.98,-122 206.02,-122 206.02,-86 347.98,-86 347.98,-122"/>
<text text-anchor="middle" x="277" y="-99.8" font-family="Times,serif" font-size="14.00">StarterRoutingModule</text>
</g>
<!-- StarterRoutingModule&#45;&gt;StarterModule -->
<g id="edge5" class="edge">
<title>StarterRoutingModule&#45;&gt;StarterModule</title>
<path fill="none" stroke="black" d="M277,-122.02C277,-139.37 277,-163 277,-163 277,-163 414.55,-163 414.55,-163"/>
<polygon fill="black" stroke="black" points="414.55,-166.5 424.55,-163 414.55,-159.5 414.55,-166.5"/>
</g>
<!-- ChallengeService -->
<g id="node7" class="node">
<title>ChallengeService</title>
<ellipse fill="#fdb462" stroke="black" cx="103" cy="-104" rx="79.29" ry="18"/>
<text text-anchor="middle" x="103" y="-99.8" font-family="Times,serif" font-size="14.00">ChallengeService</text>
</g>
<!-- ChallengeService&#45;&gt;StarterModule -->
<g id="edge6" class="edge">
<title>ChallengeService&#45;&gt;StarterModule</title>
<path fill="none" stroke="black" d="M103,-122.28C103,-143.32 103,-175 103,-175 103,-175 414.63,-175 414.63,-175"/>
<polygon fill="black" stroke="black" points="414.63,-178.5 424.63,-175 414.63,-171.5 414.63,-178.5"/>
</g>
</g>
</svg>
