<?xml version="1.0" encoding="UTF-8" standalone="no"?>
<!DOCTYPE svg PUBLIC "-//W3C//DTD SVG 1.1//EN"
 "http://www.w3.org/Graphics/SVG/1.1/DTD/svg11.dtd">
<!-- Generated by graphviz version 2.47.0 (20210316.0004)
 -->
<!-- Title: dependencies Pages: 1 -->
<svg width="1029pt" height="284pt"
 viewBox="0.00 0.00 1029.00 284.00" xmlns="http://www.w3.org/2000/svg" xmlns:xlink="http://www.w3.org/1999/xlink">
<g id="graph0" class="graph" transform="scale(1 1) rotate(0) translate(4 280)">
<title>dependencies</title>
<polygon fill="white" stroke="transparent" points="-4,4 -4,-280 1025,-280 1025,4 -4,4"/>
<text text-anchor="start" x="489.51" y="-42.4" font-family="Times-12" font-weight="bold" font-size="14.00">Legend</text>
<polygon fill="#ffffb3" stroke="transparent" points="276.5,-10 276.5,-30 296.5,-30 296.5,-10 276.5,-10"/>
<text text-anchor="start" x="300.13" y="-15.4" font-family="Times-12" font-size="14.00"> &#160;Declarations</text>
<polygon fill="#8dd3c7" stroke="transparent" points="389.5,-10 389.5,-30 409.5,-30 409.5,-10 389.5,-10"/>
<text text-anchor="start" x="413.23" y="-15.4" font-family="Times-12" font-size="14.00"> &#160;Module</text>
<polygon fill="#80b1d3" stroke="transparent" points="475.5,-10 475.5,-30 495.5,-30 495.5,-10 475.5,-10"/>
<text text-anchor="start" x="499.28" y="-15.4" font-family="Times-12" font-size="14.00"> &#160;Bootstrap</text>
<polygon fill="#fdb462" stroke="transparent" points="572.5,-10 572.5,-30 592.5,-30 592.5,-10 572.5,-10"/>
<text text-anchor="start" x="596.17" y="-15.4" font-family="Times-12" font-size="14.00"> &#160;Providers</text>
<polygon fill="#fb8072" stroke="transparent" points="668.5,-10 668.5,-30 688.5,-30 688.5,-10 668.5,-10"/>
<text text-anchor="start" x="692.23" y="-15.4" font-family="Times-12" font-size="14.00"> &#160;Exports</text>
<g id="clust1" class="cluster">
<title>cluster_AppModule</title>
<polygon fill="none" stroke="black" stroke-dasharray="1,5" points="8,-70 8,-268 1013,-268 1013,-70 8,-70"/>
</g>
<g id="clust2" class="cluster">
<title>cluster_AppModule_declarations</title>
<polygon fill="none" stroke="black" points="883,-78 883,-130 1005,-130 1005,-78 883,-78"/>
</g>
<g id="clust4" class="cluster">
<title>cluster_AppModule_imports</title>
<polygon fill="none" stroke="black" points="158,-78 158,-130 875,-130 875,-78 158,-78"/>
</g>
<g id="clust7" class="cluster">
<title>cluster_AppModule_providers</title>
<polygon fill="none" stroke="black" points="16,-78 16,-130 150,-130 150,-78 16,-78"/>
</g>
<g id="clust6" class="cluster">
<title>cluster_AppModule_bootstrap</title>
<polygon fill="none" stroke="black" points="428,-208 428,-260 552,-260 552,-208 428,-208"/>
</g>
<!-- AppComponent -->
<g id="node1" class="node">
<title>AppComponent</title>
<polygon fill="#ffffb3" stroke="black" points="996.94,-122 891.06,-122 891.06,-86 996.94,-86 996.94,-122"/>
<text text-anchor="middle" x="944" y="-99.8" font-family="Times,serif" font-size="14.00">AppComponent</text>
</g>
<!-- AppModule -->
<g id="node2" class="node">
<title>AppModule</title>
<polygon fill="#8dd3c7" stroke="black" points="531.66,-187 528.66,-191 507.66,-191 504.66,-187 448.34,-187 448.34,-151 531.66,-151 531.66,-187"/>
<text text-anchor="middle" x="490" y="-164.8" font-family="Times,serif" font-size="14.00">AppModule</text>
</g>
<!-- AppComponent&#45;&gt;AppModule -->
<g id="edge1" class="edge">
<title>AppComponent&#45;&gt;AppModule</title>
<path fill="none" stroke="black" d="M944,-122.29C944,-144.21 944,-178 944,-178 944,-178 541.9,-178 541.9,-178"/>
<polygon fill="black" stroke="black" points="541.9,-174.5 531.9,-178 541.9,-181.5 541.9,-174.5"/>
</g>
<!-- AppComponent  -->
<g id="node9" class="node">
<title>AppComponent </title>
<polygon fill="#80b1d3" stroke="black" points="544.44,-252 435.56,-252 435.56,-216 544.44,-216 544.44,-252"/>
<text text-anchor="middle" x="490" y="-229.8" font-family="Times,serif" font-size="14.00">AppComponent </text>
</g>
<!-- AppModule&#45;&gt;AppComponent  -->
<g id="edge8" class="edge">
<title>AppModule&#45;&gt;AppComponent </title>
<path fill="none" stroke="black" stroke-dasharray="1,5" d="M490,-187.11C490,-187.11 490,-205.99 490,-205.99"/>
<polygon fill="black" stroke="black" points="486.5,-205.99 490,-215.99 493.5,-205.99 486.5,-205.99"/>
</g>
<!-- AppRoutingModule -->
<g id="node3" class="node">
<title>AppRoutingModule</title>
<polygon fill="#8dd3c7" stroke="black" points="867.27,-122 864.27,-126 843.27,-126 840.27,-122 738.73,-122 738.73,-86 867.27,-86 867.27,-122"/>
<text text-anchor="middle" x="803" y="-99.8" font-family="Times,serif" font-size="14.00">AppRoutingModule</text>
</g>
<!-- AppRoutingModule&#45;&gt;AppModule -->
<g id="edge2" class="edge">
<title>AppRoutingModule&#45;&gt;AppModule</title>
<path fill="none" stroke="black" d="M803,-122.11C803,-141.34 803,-169 803,-169 803,-169 541.89,-169 541.89,-169"/>
<polygon fill="black" stroke="black" points="541.89,-165.5 531.89,-169 541.89,-172.5 541.89,-165.5"/>
</g>
<!-- ChallengeModule -->
<g id="node4" class="node">
<title>ChallengeModule</title>
<polygon fill="#8dd3c7" stroke="black" points="720.31,-122 717.31,-126 696.31,-126 693.31,-122 603.69,-122 603.69,-86 720.31,-86 720.31,-122"/>
<text text-anchor="middle" x="662" y="-99.8" font-family="Times,serif" font-size="14.00">ChallengeModule</text>
</g>
<!-- ChallengeModule&#45;&gt;AppModule -->
<g id="edge3" class="edge">
<title>ChallengeModule&#45;&gt;AppModule</title>
<path fill="none" stroke="black" d="M662,-122.03C662,-138.4 662,-160 662,-160 662,-160 542.08,-160 542.08,-160"/>
<polygon fill="black" stroke="black" points="542.08,-156.5 532.08,-160 542.08,-163.5 542.08,-156.5"/>
</g>
<!-- CoreModule -->
<g id="node5" class="node">
<title>CoreModule</title>
<polygon fill="#8dd3c7" stroke="black" points="585.26,-122 582.26,-126 561.26,-126 558.26,-122 498.74,-122 498.74,-86 585.26,-86 585.26,-122"/>
<text text-anchor="middle" x="542" y="-99.8" font-family="Times,serif" font-size="14.00">CoreModule</text>
</g>
<!-- CoreModule&#45;&gt;AppModule -->
<g id="edge4" class="edge">
<title>CoreModule&#45;&gt;AppModule</title>
<path fill="none" stroke="black" d="M515.22,-122.11C515.22,-122.11 515.22,-140.99 515.22,-140.99"/>
<polygon fill="black" stroke="black" points="511.72,-140.99 515.22,-150.99 518.72,-140.99 511.72,-140.99"/>
</g>
<!-- I18nModule -->
<g id="node6" class="node">
<title>I18nModule</title>
<polygon fill="#8dd3c7" stroke="black" points="480.71,-122 477.71,-126 456.71,-126 453.71,-122 395.29,-122 395.29,-86 480.71,-86 480.71,-122"/>
<text text-anchor="middle" x="438" y="-99.8" font-family="Times,serif" font-size="14.00">I18nModule</text>
</g>
<!-- I18nModule&#45;&gt;AppModule -->
<g id="edge5" class="edge">
<title>I18nModule&#45;&gt;AppModule</title>
<path fill="none" stroke="black" d="M464.39,-122.11C464.39,-122.11 464.39,-140.99 464.39,-140.99"/>
<polygon fill="black" stroke="black" points="460.89,-140.99 464.39,-150.99 467.89,-140.99 460.89,-140.99"/>
</g>
<!-- ProfileModule -->
<g id="node7" class="node">
<title>ProfileModule</title>
<polygon fill="#8dd3c7" stroke="black" points="377.65,-122 374.65,-126 353.65,-126 350.65,-122 280.35,-122 280.35,-86 377.65,-86 377.65,-122"/>
<text text-anchor="middle" x="329" y="-99.8" font-family="Times,serif" font-size="14.00">ProfileModule</text>
</g>
<!-- ProfileModule&#45;&gt;AppModule -->
<g id="edge6" class="edge">
<title>ProfileModule&#45;&gt;AppModule</title>
<path fill="none" stroke="black" d="M329,-122.03C329,-138.4 329,-160 329,-160 329,-160 438.12,-160 438.12,-160"/>
<polygon fill="black" stroke="black" points="438.12,-163.5 448.12,-160 438.12,-156.5 438.12,-163.5"/>
</g>
<!-- StarterModule -->
<g id="node8" class="node">
<title>StarterModule</title>
<polygon fill="#8dd3c7" stroke="black" points="262.36,-122 259.36,-126 238.36,-126 235.36,-122 165.64,-122 165.64,-86 262.36,-86 262.36,-122"/>
<text text-anchor="middle" x="214" y="-99.8" font-family="Times,serif" font-size="14.00">StarterModule</text>
</g>
<!-- StarterModule&#45;&gt;AppModule -->
<g id="edge7" class="edge">
<title>StarterModule&#45;&gt;AppModule</title>
<path fill="none" stroke="black" d="M214,-122.11C214,-141.34 214,-169 214,-169 214,-169 438.08,-169 438.08,-169"/>
<polygon fill="black" stroke="black" points="438.08,-172.5 448.08,-169 438.08,-165.5 438.08,-172.5"/>
</g>
<!-- AuthService -->
<g id="node10" class="node">
<title>AuthService</title>
<ellipse fill="#fdb462" stroke="black" cx="83" cy="-104" rx="59.11" ry="18"/>
<text text-anchor="middle" x="83" y="-99.8" font-family="Times,serif" font-size="14.00">AuthService</text>
</g>
<!-- AuthService&#45;&gt;AppModule -->
<g id="edge9" class="edge">
<title>AuthService&#45;&gt;AppModule</title>
<path fill="none" stroke="black" d="M83,-122.29C83,-144.21 83,-178 83,-178 83,-178 437.98,-178 437.98,-178"/>
<polygon fill="black" stroke="black" points="437.98,-181.5 447.98,-178 437.98,-174.5 437.98,-181.5"/>
</g>
</g>
</svg>
