<?xml version="1.0" encoding="UTF-8" standalone="no"?>
<!DOCTYPE svg PUBLIC "-//W3C//DTD SVG 1.1//EN"
 "http://www.w3.org/Graphics/SVG/1.1/DTD/svg11.dtd">
<!-- Generated by graphviz version 2.47.0 (20210316.0004)
 -->
<!-- Title: dependencies Pages: 1 -->
<svg width="891pt" height="284pt"
 viewBox="0.00 0.00 891.00 284.00" xmlns="http://www.w3.org/2000/svg" xmlns:xlink="http://www.w3.org/1999/xlink">
<g id="graph0" class="graph" transform="scale(1 1) rotate(0) translate(4 280)">
<title>dependencies</title>
<polygon fill="white" stroke="transparent" points="-4,4 -4,-280 887,-280 887,4 -4,4"/>
<text text-anchor="start" x="420.51" y="-42.4" font-family="Times-12" font-weight="bold" font-size="14.00">Legend</text>
<polygon fill="#ffffb3" stroke="transparent" points="207.5,-10 207.5,-30 227.5,-30 227.5,-10 207.5,-10"/>
<text text-anchor="start" x="231.13" y="-15.4" font-family="Times-12" font-size="14.00"> &#160;Declarations</text>
<polygon fill="#8dd3c7" stroke="transparent" points="320.5,-10 320.5,-30 340.5,-30 340.5,-10 320.5,-10"/>
<text text-anchor="start" x="344.23" y="-15.4" font-family="Times-12" font-size="14.00"> &#160;Module</text>
<polygon fill="#80b1d3" stroke="transparent" points="406.5,-10 406.5,-30 426.5,-30 426.5,-10 406.5,-10"/>
<text text-anchor="start" x="430.28" y="-15.4" font-family="Times-12" font-size="14.00"> &#160;Bootstrap</text>
<polygon fill="#fdb462" stroke="transparent" points="503.5,-10 503.5,-30 523.5,-30 523.5,-10 503.5,-10"/>
<text text-anchor="start" x="527.17" y="-15.4" font-family="Times-12" font-size="14.00"> &#160;Providers</text>
<polygon fill="#fb8072" stroke="transparent" points="599.5,-10 599.5,-30 619.5,-30 619.5,-10 599.5,-10"/>
<text text-anchor="start" x="623.23" y="-15.4" font-family="Times-12" font-size="14.00"> &#160;Exports</text>
<g id="clust1" class="cluster">
<title>cluster_SharedComponentsModule</title>
<polygon fill="none" stroke="black" stroke-dasharray="1,5" points="8,-70 8,-268 875,-268 875,-70 8,-70"/>
</g>
<g id="clust9" class="cluster">
<title>cluster_SharedComponentsModule_exports</title>
<polygon fill="none" stroke="black" points="16,-208 16,-260 867,-260 867,-208 16,-208"/>
</g>
<g id="clust2" class="cluster">
<title>cluster_SharedComponentsModule_declarations</title>
<polygon fill="none" stroke="black" points="24,-78 24,-130 858,-130 858,-78 24,-78"/>
</g>
<!-- BreadcrumbComponent -->
<g id="node1" class="node">
<title>BreadcrumbComponent</title>
<polygon fill="#ffffb3" stroke="black" points="850.03,-122 699.97,-122 699.97,-86 850.03,-86 850.03,-122"/>
<text text-anchor="middle" x="775" y="-99.8" font-family="Times,serif" font-size="14.00">BreadcrumbComponent</text>
</g>
<!-- SharedComponentsModule -->
<g id="node6" class="node">
<title>SharedComponentsModule</title>
<polygon fill="#8dd3c7" stroke="black" points="512.7,-187 509.7,-191 488.7,-191 485.7,-187 343.3,-187 343.3,-151 512.7,-151 512.7,-187"/>
<text text-anchor="middle" x="428" y="-164.8" font-family="Times,serif" font-size="14.00">SharedComponentsModule</text>
</g>
<!-- BreadcrumbComponent&#45;&gt;SharedComponentsModule -->
<g id="edge1" class="edge">
<title>BreadcrumbComponent&#45;&gt;SharedComponentsModule</title>
<path fill="none" stroke="black" d="M801.84,-122.02C801.84,-139.37 801.84,-163 801.84,-163 801.84,-163 522.83,-163 522.83,-163"/>
<polygon fill="black" stroke="black" points="522.83,-159.5 512.83,-163 522.83,-166.5 522.83,-159.5"/>
</g>
<!-- ChallengeCardComponent -->
<g id="node2" class="node">
<title>ChallengeCardComponent</title>
<polygon fill="#ffffb3" stroke="black" points="681.81,-122 516.19,-122 516.19,-86 681.81,-86 681.81,-122"/>
<text text-anchor="middle" x="599" y="-99.8" font-family="Times,serif" font-size="14.00">ChallengeCardComponent</text>
</g>
<!-- ChallengeCardComponent&#45;&gt;SharedComponentsModule -->
<g id="edge2" class="edge">
<title>ChallengeCardComponent&#45;&gt;SharedComponentsModule</title>
<path fill="none" stroke="black" d="M516.32,-104C509.76,-104 505.6,-104 505.6,-104 505.6,-104 505.6,-140.89 505.6,-140.89"/>
<polygon fill="black" stroke="black" points="502.1,-140.89 505.6,-150.89 509.1,-140.89 502.1,-140.89"/>
</g>
<!-- PaginationComponent -->
<g id="node3" class="node">
<title>PaginationComponent</title>
<polygon fill="#ffffb3" stroke="black" points="498.72,-122 357.28,-122 357.28,-86 498.72,-86 498.72,-122"/>
<text text-anchor="middle" x="428" y="-99.8" font-family="Times,serif" font-size="14.00">PaginationComponent</text>
</g>
<!-- PaginationComponent&#45;&gt;SharedComponentsModule -->
<g id="edge3" class="edge">
<title>PaginationComponent&#45;&gt;SharedComponentsModule</title>
<path fill="none" stroke="black" d="M428,-122.11C428,-122.11 428,-140.99 428,-140.99"/>
<polygon fill="black" stroke="black" points="424.5,-140.99 428,-150.99 431.5,-140.99 424.5,-140.99"/>
</g>
<!-- ResourceCardComponent -->
<g id="node4" class="node">
<title>ResourceCardComponent</title>
<polygon fill="#ffffb3" stroke="black" points="339.13,-122 178.87,-122 178.87,-86 339.13,-86 339.13,-122"/>
<text text-anchor="middle" x="259" y="-99.8" font-family="Times,serif" font-size="14.00">ResourceCardComponent</text>
</g>
<!-- ResourceCardComponent&#45;&gt;SharedComponentsModule -->
<g id="edge4" class="edge">
<title>ResourceCardComponent&#45;&gt;SharedComponentsModule</title>
<path fill="none" stroke="black" d="M339.19,-104C346.02,-104 350.4,-104 350.4,-104 350.4,-104 350.4,-140.89 350.4,-140.89"/>
<polygon fill="black" stroke="black" points="346.9,-140.89 350.4,-150.89 353.9,-140.89 346.9,-140.89"/>
</g>
<!-- SolutionComponent -->
<g id="node5" class="node">
<title>SolutionComponent</title>
<polygon fill="#ffffb3" stroke="black" points="160.29,-122 31.71,-122 31.71,-86 160.29,-86 160.29,-122"/>
<text text-anchor="middle" x="96" y="-99.8" font-family="Times,serif" font-size="14.00">SolutionComponent</text>
</g>
<!-- SolutionComponent&#45;&gt;SharedComponentsModule -->
<g id="edge5" class="edge">
<title>SolutionComponent&#45;&gt;SharedComponentsModule</title>
<path fill="none" stroke="black" d="M114.63,-122.02C114.63,-139.37 114.63,-163 114.63,-163 114.63,-163 333.2,-163 333.2,-163"/>
<polygon fill="black" stroke="black" points="333.2,-166.5 343.2,-163 333.2,-159.5 333.2,-166.5"/>
</g>
<!-- BreadcrumbComponent  -->
<g id="node7" class="node">
<title>BreadcrumbComponent </title>
<polygon fill="#fb8072" stroke="black" points="859.02,-252 704.98,-252 704.98,-216 859.02,-216 859.02,-252"/>
<text text-anchor="middle" x="782" y="-229.8" font-family="Times,serif" font-size="14.00">BreadcrumbComponent </text>
</g>
<!-- SharedComponentsModule&#45;&gt;BreadcrumbComponent  -->
<g id="edge6" class="edge">
<title>SharedComponentsModule&#45;&gt;BreadcrumbComponent </title>
<path fill="none" stroke="black" stroke-dasharray="5,2" d="M512.65,-175C609.07,-175 753.41,-175 753.41,-175 753.41,-175 753.41,-205.98 753.41,-205.98"/>
<polygon fill="black" stroke="black" points="749.91,-205.98 753.41,-215.98 756.91,-205.98 749.91,-205.98"/>
</g>
<!-- ChallengeCardComponent  -->
<g id="node8" class="node">
<title>ChallengeCardComponent </title>
<polygon fill="#fb8072" stroke="black" points="687.31,-252 518.69,-252 518.69,-216 687.31,-216 687.31,-252"/>
<text text-anchor="middle" x="603" y="-229.8" font-family="Times,serif" font-size="14.00">ChallengeCardComponent </text>
</g>
<!-- SharedComponentsModule&#45;&gt;ChallengeCardComponent  -->
<g id="edge7" class="edge">
<title>SharedComponentsModule&#45;&gt;ChallengeCardComponent </title>
<path fill="none" stroke="black" stroke-dasharray="5,2" d="M506.48,-187.11C506.48,-206.34 506.48,-234 506.48,-234 506.48,-234 508.31,-234 508.31,-234"/>
<polygon fill="black" stroke="black" points="508.31,-237.5 518.31,-234 508.31,-230.5 508.31,-237.5"/>
</g>
<!-- PaginationComponent  -->
<g id="node9" class="node">
<title>PaginationComponent </title>
<polygon fill="#fb8072" stroke="black" points="500.22,-252 355.78,-252 355.78,-216 500.22,-216 500.22,-252"/>
<text text-anchor="middle" x="428" y="-229.8" font-family="Times,serif" font-size="14.00">PaginationComponent </text>
</g>
<!-- SharedComponentsModule&#45;&gt;PaginationComponent  -->
<g id="edge8" class="edge">
<title>SharedComponentsModule&#45;&gt;PaginationComponent </title>
<path fill="none" stroke="black" stroke-dasharray="5,2" d="M428,-187.11C428,-187.11 428,-205.99 428,-205.99"/>
<polygon fill="black" stroke="black" points="424.5,-205.99 428,-215.99 431.5,-205.99 424.5,-205.99"/>
</g>
<!-- ResourceCardComponent  -->
<g id="node10" class="node">
<title>ResourceCardComponent </title>
<polygon fill="#fb8072" stroke="black" points="338.13,-252 173.87,-252 173.87,-216 338.13,-216 338.13,-252"/>
<text text-anchor="middle" x="256" y="-229.8" font-family="Times,serif" font-size="14.00">ResourceCardComponent </text>
</g>
<!-- SharedComponentsModule&#45;&gt;ResourceCardComponent  -->
<g id="edge9" class="edge">
<title>SharedComponentsModule&#45;&gt;ResourceCardComponent </title>
<path fill="none" stroke="black" stroke-dasharray="5,2" d="M349.52,-187.11C349.52,-206.34 349.52,-234 349.52,-234 349.52,-234 348.41,-234 348.41,-234"/>
<polygon fill="black" stroke="black" points="348.43,-230.5 338.43,-234 348.43,-237.5 348.43,-230.5"/>
</g>
<!-- SolutionComponent  -->
<g id="node11" class="node">
<title>SolutionComponent </title>
<polygon fill="#fb8072" stroke="black" points="156.29,-252 23.71,-252 23.71,-216 156.29,-216 156.29,-252"/>
<text text-anchor="middle" x="90" y="-229.8" font-family="Times,serif" font-size="14.00">SolutionComponent </text>
</g>
<!-- SharedComponentsModule&#45;&gt;SolutionComponent  -->
<g id="edge10" class="edge">
<title>SharedComponentsModule&#45;&gt;SolutionComponent </title>
<path fill="none" stroke="black" stroke-dasharray="5,2" d="M343,-175C238.01,-175 73.12,-175 73.12,-175 73.12,-175 73.12,-205.98 73.12,-205.98"/>
<polygon fill="black" stroke="black" points="69.62,-205.98 73.12,-215.98 76.62,-205.98 69.62,-205.98"/>
</g>
</g>
</svg>
