<?xml version="1.0" encoding="UTF-8" standalone="no"?>
<!DOCTYPE svg PUBLIC "-//W3C//DTD SVG 1.1//EN"
 "http://www.w3.org/Graphics/SVG/1.1/DTD/svg11.dtd">
<!-- Generated by graphviz version 2.47.0 (20210316.0004)
 -->
<!-- Title: dependencies Pages: 1 -->
<svg width="982pt" height="284pt"
 viewBox="0.00 0.00 982.00 284.00" xmlns="http://www.w3.org/2000/svg" xmlns:xlink="http://www.w3.org/1999/xlink">
<g id="graph0" class="graph" transform="scale(1 1) rotate(0) translate(4 280)">
<title>dependencies</title>
<polygon fill="white" stroke="transparent" points="-4,4 -4,-280 978,-280 978,4 -4,4"/>
<text text-anchor="start" x="466.01" y="-42.4" font-family="Times-12" font-weight="bold" font-size="14.00">Legend</text>
<polygon fill="#ffffb3" stroke="transparent" points="253,-10 253,-30 273,-30 273,-10 253,-10"/>
<text text-anchor="start" x="276.63" y="-15.4" font-family="Times-12" font-size="14.00"> &#160;Declarations</text>
<polygon fill="#8dd3c7" stroke="transparent" points="366,-10 366,-30 386,-30 386,-10 366,-10"/>
<text text-anchor="start" x="389.73" y="-15.4" font-family="Times-12" font-size="14.00"> &#160;Module</text>
<polygon fill="#80b1d3" stroke="transparent" points="452,-10 452,-30 472,-30 472,-10 452,-10"/>
<text text-anchor="start" x="475.78" y="-15.4" font-family="Times-12" font-size="14.00"> &#160;Bootstrap</text>
<polygon fill="#fdb462" stroke="transparent" points="549,-10 549,-30 569,-30 569,-10 549,-10"/>
<text text-anchor="start" x="572.67" y="-15.4" font-family="Times-12" font-size="14.00"> &#160;Providers</text>
<polygon fill="#fb8072" stroke="transparent" points="645,-10 645,-30 665,-30 665,-10 645,-10"/>
<text text-anchor="start" x="668.73" y="-15.4" font-family="Times-12" font-size="14.00"> &#160;Exports</text>
<g id="clust1" class="cluster">
<title>cluster_ModalsModule</title>
<polygon fill="none" stroke="black" stroke-dasharray="1,5" points="8,-70 8,-268 966,-268 966,-70 8,-70"/>
</g>
<g id="clust2" class="cluster">
<title>cluster_ModalsModule_declarations</title>
<polygon fill="none" stroke="black" points="23,-78 23,-130 949,-130 949,-78 23,-78"/>
</g>
<g id="clust9" class="cluster">
<title>cluster_ModalsModule_exports</title>
<polygon fill="none" stroke="black" points="16,-208 16,-260 958,-260 958,-208 16,-208"/>
</g>
<!-- FiltersModalComponent -->
<g id="node1" class="node">
<title>FiltersModalComponent</title>
<polygon fill="#ffffb3" stroke="black" points="940.66,-122 787.34,-122 787.34,-86 940.66,-86 940.66,-122"/>
<text text-anchor="middle" x="864" y="-99.8" font-family="Times,serif" font-size="14.00">FiltersModalComponent</text>
</g>
<!-- ModalsModule -->
<g id="node6" class="node">
<title>ModalsModule</title>
<polygon fill="#8dd3c7" stroke="black" points="568.55,-187 565.55,-191 544.55,-191 541.55,-187 467.45,-187 467.45,-151 568.55,-151 568.55,-187"/>
<text text-anchor="middle" x="518" y="-164.8" font-family="Times,serif" font-size="14.00">ModalsModule</text>
</g>
<!-- FiltersModalComponent&#45;&gt;ModalsModule -->
<g id="edge1" class="edge">
<title>FiltersModalComponent&#45;&gt;ModalsModule</title>
<path fill="none" stroke="black" d="M891.36,-122.27C891.36,-140.56 891.36,-166 891.36,-166 891.36,-166 578.74,-166 578.74,-166"/>
<polygon fill="black" stroke="black" points="578.74,-162.5 568.74,-166 578.74,-169.5 578.74,-162.5"/>
</g>
<!-- LoginModalComponent -->
<g id="node2" class="node">
<title>LoginModalComponent</title>
<polygon fill="#ffffb3" stroke="black" points="769.83,-122 618.17,-122 618.17,-86 769.83,-86 769.83,-122"/>
<text text-anchor="middle" x="694" y="-99.8" font-family="Times,serif" font-size="14.00">LoginModalComponent</text>
</g>
<!-- LoginModalComponent&#45;&gt;ModalsModule -->
<g id="edge2" class="edge">
<title>LoginModalComponent&#45;&gt;ModalsModule</title>
<path fill="none" stroke="black" d="M719.64,-122.01C719.64,-138.05 719.64,-159 719.64,-159 719.64,-159 578.62,-159 578.62,-159"/>
<polygon fill="black" stroke="black" points="578.62,-155.5 568.62,-159 578.62,-162.5 578.62,-155.5"/>
</g>
<!-- RegisterModalComponent -->
<g id="node3" class="node">
<title>RegisterModalComponent</title>
<polygon fill="#ffffb3" stroke="black" points="600.04,-122 435.96,-122 435.96,-86 600.04,-86 600.04,-122"/>
<text text-anchor="middle" x="518" y="-99.8" font-family="Times,serif" font-size="14.00">RegisterModalComponent</text>
</g>
<!-- RegisterModalComponent&#45;&gt;ModalsModule -->
<g id="edge3" class="edge">
<title>RegisterModalComponent&#45;&gt;ModalsModule</title>
<path fill="none" stroke="black" d="M518,-122.11C518,-122.11 518,-140.99 518,-140.99"/>
<polygon fill="black" stroke="black" points="514.5,-140.99 518,-150.99 521.5,-140.99 514.5,-140.99"/>
</g>
<!-- RestrictedModalComponent -->
<g id="node4" class="node">
<title>RestrictedModalComponent</title>
<polygon fill="#ffffb3" stroke="black" points="417.14,-122 242.86,-122 242.86,-86 417.14,-86 417.14,-122"/>
<text text-anchor="middle" x="330" y="-99.8" font-family="Times,serif" font-size="14.00">RestrictedModalComponent</text>
</g>
<!-- RestrictedModalComponent&#45;&gt;ModalsModule -->
<g id="edge4" class="edge">
<title>RestrictedModalComponent&#45;&gt;ModalsModule</title>
<path fill="none" stroke="black" d="M358.27,-122.01C358.27,-138.05 358.27,-159 358.27,-159 358.27,-159 457.02,-159 457.02,-159"/>
<polygon fill="black" stroke="black" points="457.02,-162.5 467.02,-159 457.02,-155.5 457.02,-162.5"/>
</g>
<!-- SendSolutionModalComponent -->
<g id="node5" class="node">
<title>SendSolutionModalComponent</title>
<polygon fill="#ffffb3" stroke="black" points="224.83,-122 31.17,-122 31.17,-86 224.83,-86 224.83,-122"/>
<text text-anchor="middle" x="128" y="-99.8" font-family="Times,serif" font-size="14.00">SendSolutionModalComponent</text>
</g>
<!-- SendSolutionModalComponent&#45;&gt;ModalsModule -->
<g id="edge5" class="edge">
<title>SendSolutionModalComponent&#45;&gt;ModalsModule</title>
<path fill="none" stroke="black" d="M157.39,-122.27C157.39,-140.56 157.39,-166 157.39,-166 157.39,-166 457.1,-166 457.1,-166"/>
<polygon fill="black" stroke="black" points="457.1,-169.5 467.1,-166 457.1,-162.5 457.1,-169.5"/>
</g>
<!-- FiltersModalComponent  -->
<g id="node7" class="node">
<title>FiltersModalComponent </title>
<polygon fill="#fb8072" stroke="black" points="949.66,-252 792.34,-252 792.34,-216 949.66,-216 949.66,-252"/>
<text text-anchor="middle" x="871" y="-229.8" font-family="Times,serif" font-size="14.00">FiltersModalComponent </text>
</g>
<!-- ModalsModule&#45;&gt;FiltersModalComponent  -->
<g id="edge6" class="edge">
<title>ModalsModule&#45;&gt;FiltersModalComponent </title>
<path fill="none" stroke="black" stroke-dasharray="5,2" d="M568.61,-173C659.7,-173 841.89,-173 841.89,-173 841.89,-173 841.89,-205.7 841.89,-205.7"/>
<polygon fill="black" stroke="black" points="838.39,-205.7 841.89,-215.7 845.39,-205.7 838.39,-205.7"/>
</g>
<!-- LoginModalComponent  -->
<g id="node8" class="node">
<title>LoginModalComponent </title>
<polygon fill="#fb8072" stroke="black" points="774.33,-252 619.67,-252 619.67,-216 774.33,-216 774.33,-252"/>
<text text-anchor="middle" x="697" y="-229.8" font-family="Times,serif" font-size="14.00">LoginModalComponent </text>
</g>
<!-- ModalsModule&#45;&gt;LoginModalComponent  -->
<g id="edge7" class="edge">
<title>ModalsModule&#45;&gt;LoginModalComponent </title>
<path fill="none" stroke="black" stroke-dasharray="5,2" d="M568.91,-180C612.95,-180 669.61,-180 669.61,-180 669.61,-180 669.61,-205.72 669.61,-205.72"/>
<polygon fill="black" stroke="black" points="666.11,-205.72 669.61,-215.72 673.11,-205.72 666.11,-205.72"/>
</g>
<!-- RegisterModalComponent  -->
<g id="node9" class="node">
<title>RegisterModalComponent </title>
<polygon fill="#fb8072" stroke="black" points="602.03,-252 433.97,-252 433.97,-216 602.03,-216 602.03,-252"/>
<text text-anchor="middle" x="518" y="-229.8" font-family="Times,serif" font-size="14.00">RegisterModalComponent </text>
</g>
<!-- ModalsModule&#45;&gt;RegisterModalComponent  -->
<g id="edge8" class="edge">
<title>ModalsModule&#45;&gt;RegisterModalComponent </title>
<path fill="none" stroke="black" stroke-dasharray="5,2" d="M518,-187.11C518,-187.11 518,-205.99 518,-205.99"/>
<polygon fill="black" stroke="black" points="514.5,-205.99 518,-215.99 521.5,-205.99 514.5,-205.99"/>
</g>
<!-- RestrictedModalComponent  -->
<g id="node10" class="node">
<title>RestrictedModalComponent </title>
<polygon fill="#fb8072" stroke="black" points="416.14,-252 237.86,-252 237.86,-216 416.14,-216 416.14,-252"/>
<text text-anchor="middle" x="327" y="-229.8" font-family="Times,serif" font-size="14.00">RestrictedModalComponent </text>
</g>
<!-- ModalsModule&#45;&gt;RestrictedModalComponent  -->
<g id="edge9" class="edge">
<title>ModalsModule&#45;&gt;RestrictedModalComponent </title>
<path fill="none" stroke="black" stroke-dasharray="5,2" d="M467.27,-180C403,-180 300.48,-180 300.48,-180 300.48,-180 300.48,-205.72 300.48,-205.72"/>
<polygon fill="black" stroke="black" points="296.98,-205.72 300.48,-215.72 303.98,-205.72 296.98,-205.72"/>
</g>
<!-- SendSolutionModalComponent  -->
<g id="node11" class="node">
<title>SendSolutionModalComponent </title>
<polygon fill="#fb8072" stroke="black" points="220.33,-252 23.67,-252 23.67,-216 220.33,-216 220.33,-252"/>
<text text-anchor="middle" x="122" y="-229.8" font-family="Times,serif" font-size="14.00">SendSolutionModalComponent </text>
</g>
<!-- ModalsModule&#45;&gt;SendSolutionModalComponent  -->
<g id="edge10" class="edge">
<title>ModalsModule&#45;&gt;SendSolutionModalComponent </title>
<path fill="none" stroke="black" stroke-dasharray="5,2" d="M467.32,-173C354.87,-173 94.36,-173 94.36,-173 94.36,-173 94.36,-205.7 94.36,-205.7"/>
<polygon fill="black" stroke="black" points="90.86,-205.7 94.36,-215.7 97.86,-205.7 90.86,-205.7"/>
</g>
</g>
</svg>
