<?xml version="1.0" encoding="UTF-8" standalone="no"?>
<!DOCTYPE svg PUBLIC "-//W3C//DTD SVG 1.1//EN"
 "http://www.w3.org/Graphics/SVG/1.1/DTD/svg11.dtd">
<!-- Generated by graphviz version 2.47.0 (20210316.0004)
 -->
<!-- Title: dependencies Pages: 1 -->
<svg width="1122pt" height="211pt"
 viewBox="0.00 0.00 1122.00 211.00" xmlns="http://www.w3.org/2000/svg" xmlns:xlink="http://www.w3.org/1999/xlink">
<g id="graph0" class="graph" transform="scale(1 1) rotate(0) translate(4 207)">
<title>dependencies</title>
<polygon fill="white" stroke="transparent" points="-4,4 -4,-207 1118,-207 1118,4 -4,4"/>
<text text-anchor="start" x="536.01" y="-42.4" font-family="Times-12" font-weight="bold" font-size="14.00">Legend</text>
<polygon fill="#ffffb3" stroke="transparent" points="323,-10 323,-30 343,-30 343,-10 323,-10"/>
<text text-anchor="start" x="346.63" y="-15.4" font-family="Times-12" font-size="14.00"> &#160;Declarations</text>
<polygon fill="#8dd3c7" stroke="transparent" points="436,-10 436,-30 456,-30 456,-10 436,-10"/>
<text text-anchor="start" x="459.73" y="-15.4" font-family="Times-12" font-size="14.00"> &#160;Module</text>
<polygon fill="#80b1d3" stroke="transparent" points="522,-10 522,-30 542,-30 542,-10 522,-10"/>
<text text-anchor="start" x="545.78" y="-15.4" font-family="Times-12" font-size="14.00"> &#160;Bootstrap</text>
<polygon fill="#fdb462" stroke="transparent" points="619,-10 619,-30 639,-30 639,-10 619,-10"/>
<text text-anchor="start" x="642.67" y="-15.4" font-family="Times-12" font-size="14.00"> &#160;Providers</text>
<polygon fill="#fb8072" stroke="transparent" points="715,-10 715,-30 735,-30 735,-10 715,-10"/>
<text text-anchor="start" x="738.73" y="-15.4" font-family="Times-12" font-size="14.00"> &#160;Exports</text>
<g id="clust1" class="cluster">
<title>cluster_ChallengeModule</title>
<polygon fill="none" stroke="black" stroke-dasharray="1,5" points="8,-70 8,-195 1106,-195 1106,-70 8,-70"/>
</g>
<g id="clust9" class="cluster">
<title>cluster_ChallengeModule_providers</title>
<polygon fill="none" stroke="black" points="964,-78 964,-130 1098,-130 1098,-78 964,-78"/>
</g>
<g id="clust6" class="cluster">
<title>cluster_ChallengeModule_imports</title>
<polygon fill="none" stroke="black" points="554,-78 554,-130 956,-130 956,-78 554,-78"/>
</g>
<g id="clust2" class="cluster">
<title>cluster_ChallengeModule_declarations</title>
<polygon fill="none" stroke="black" points="16,-78 16,-130 546,-130 546,-78 16,-78"/>
</g>
<!-- ChallengeComponent -->
<g id="node1" class="node">
<title>ChallengeComponent</title>
<polygon fill="#ffffb3" stroke="black" points="538.09,-122 399.91,-122 399.91,-86 538.09,-86 538.09,-122"/>
<text text-anchor="middle" x="469" y="-99.8" font-family="Times,serif" font-size="14.00">ChallengeComponent</text>
</g>
<!-- ChallengeModule -->
<g id="node4" class="node">
<title>ChallengeModule</title>
<polygon fill="#8dd3c7" stroke="black" points="671.31,-187 668.31,-191 647.31,-191 644.31,-187 554.69,-187 554.69,-151 671.31,-151 671.31,-187"/>
<text text-anchor="middle" x="613" y="-164.8" font-family="Times,serif" font-size="14.00">ChallengeModule</text>
</g>
<!-- ChallengeComponent&#45;&gt;ChallengeModule -->
<g id="edge1" class="edge">
<title>ChallengeComponent&#45;&gt;ChallengeModule</title>
<path fill="none" stroke="black" d="M538.22,-104C550.01,-104 558.54,-104 558.54,-104 558.54,-104 558.54,-140.89 558.54,-140.89"/>
<polygon fill="black" stroke="black" points="555.04,-140.89 558.54,-150.89 562.04,-140.89 555.04,-140.89"/>
</g>
<!-- ChallengeHeaderComponent -->
<g id="node2" class="node">
<title>ChallengeHeaderComponent</title>
<polygon fill="#ffffb3" stroke="black" points="382.01,-122 203.99,-122 203.99,-86 382.01,-86 382.01,-122"/>
<text text-anchor="middle" x="293" y="-99.8" font-family="Times,serif" font-size="14.00">ChallengeHeaderComponent</text>
</g>
<!-- ChallengeHeaderComponent&#45;&gt;ChallengeModule -->
<g id="edge2" class="edge">
<title>ChallengeHeaderComponent&#45;&gt;ChallengeModule</title>
<path fill="none" stroke="black" d="M293,-122.02C293,-139.37 293,-163 293,-163 293,-163 544.68,-163 544.68,-163"/>
<polygon fill="black" stroke="black" points="544.68,-166.5 554.68,-163 544.68,-159.5 544.68,-166.5"/>
</g>
<!-- ChallengeInfoComponent -->
<g id="node3" class="node">
<title>ChallengeInfoComponent</title>
<polygon fill="#ffffb3" stroke="black" points="185.92,-122 24.08,-122 24.08,-86 185.92,-86 185.92,-122"/>
<text text-anchor="middle" x="105" y="-99.8" font-family="Times,serif" font-size="14.00">ChallengeInfoComponent</text>
</g>
<!-- ChallengeInfoComponent&#45;&gt;ChallengeModule -->
<g id="edge3" class="edge">
<title>ChallengeInfoComponent&#45;&gt;ChallengeModule</title>
<path fill="none" stroke="black" d="M105,-122.28C105,-143.32 105,-175 105,-175 105,-175 544.73,-175 544.73,-175"/>
<polygon fill="black" stroke="black" points="544.73,-178.5 554.73,-175 544.73,-171.5 544.73,-178.5"/>
</g>
<!-- ChallengeRoutingModule -->
<g id="node5" class="node">
<title>ChallengeRoutingModule</title>
<polygon fill="#8dd3c7" stroke="black" points="947.93,-122 944.93,-126 923.93,-126 920.93,-122 786.07,-122 786.07,-86 947.93,-86 947.93,-122"/>
<text text-anchor="middle" x="867" y="-99.8" font-family="Times,serif" font-size="14.00">ChallengeRoutingModule</text>
</g>
<!-- ChallengeRoutingModule&#45;&gt;ChallengeModule -->
<g id="edge4" class="edge">
<title>ChallengeRoutingModule&#45;&gt;ChallengeModule</title>
<path fill="none" stroke="black" d="M867,-122.02C867,-139.37 867,-163 867,-163 867,-163 681.27,-163 681.27,-163"/>
<polygon fill="black" stroke="black" points="681.27,-159.5 671.27,-163 681.27,-166.5 681.27,-159.5"/>
</g>
<!-- CoreModule -->
<g id="node6" class="node">
<title>CoreModule</title>
<polygon fill="#8dd3c7" stroke="black" points="768.26,-122 765.26,-126 744.26,-126 741.26,-122 681.74,-122 681.74,-86 768.26,-86 768.26,-122"/>
<text text-anchor="middle" x="725" y="-99.8" font-family="Times,serif" font-size="14.00">CoreModule</text>
</g>
<!-- CoreModule&#45;&gt;ChallengeModule -->
<g id="edge5" class="edge">
<title>CoreModule&#45;&gt;ChallengeModule</title>
<path fill="none" stroke="black" d="M681.69,-104C673.51,-104 667.46,-104 667.46,-104 667.46,-104 667.46,-140.89 667.46,-140.89"/>
<polygon fill="black" stroke="black" points="663.96,-140.89 667.46,-150.89 670.96,-140.89 663.96,-140.89"/>
</g>
<!-- ModalsModule -->
<g id="node7" class="node">
<title>ModalsModule</title>
<polygon fill="#8dd3c7" stroke="black" points="663.55,-122 660.55,-126 639.55,-126 636.55,-122 562.45,-122 562.45,-86 663.55,-86 663.55,-122"/>
<text text-anchor="middle" x="613" y="-99.8" font-family="Times,serif" font-size="14.00">ModalsModule</text>
</g>
<!-- ModalsModule&#45;&gt;ChallengeModule -->
<g id="edge6" class="edge">
<title>ModalsModule&#45;&gt;ChallengeModule</title>
<path fill="none" stroke="black" d="M613,-122.11C613,-122.11 613,-140.99 613,-140.99"/>
<polygon fill="black" stroke="black" points="609.5,-140.99 613,-150.99 616.5,-140.99 609.5,-140.99"/>
</g>
<!-- AuthService -->
<g id="node8" class="node">
<title>AuthService</title>
<ellipse fill="#fdb462" stroke="black" cx="1031" cy="-104" rx="59.11" ry="18"/>
<text text-anchor="middle" x="1031" y="-99.8" font-family="Times,serif" font-size="14.00">AuthService</text>
</g>
<!-- AuthService&#45;&gt;ChallengeModule -->
<g id="edge7" class="edge">
<title>AuthService&#45;&gt;ChallengeModule</title>
<path fill="none" stroke="black" d="M1031,-122.28C1031,-143.32 1031,-175 1031,-175 1031,-175 681.56,-175 681.56,-175"/>
<polygon fill="black" stroke="black" points="681.56,-171.5 671.56,-175 681.56,-178.5 681.56,-171.5"/>
</g>
</g>
</svg>
