<svg width="18" height="17" viewBox="0 0 13 17" fill="none" xmlns="http://www.w3.org/2000/svg">
 <path fill-rule="evenodd" clip-rule="evenodd" d="M11.4751 14.5441V3.02831C11.4789 2.58252 11.3054 2.1535 10.9928 1.83562C10.6803 1.51774 10.2542 1.33705 9.80845 1.33331H3.14178C2.69599 1.33705 2.26995 1.51774 1.95738 1.83562C1.64482 2.1535 1.47134 2.58252 1.47511 3.02831V14.5441C1.43549 14.8766 1.59875 15.2006 1.88958 15.3665C2.18042 15.5325 2.54234 15.5082 2.80845 15.305L5.97511 12.5708C6.26058 12.3132 6.69465 12.3132 6.98011 12.5708L10.1418 15.3058C10.408 15.5092 10.7702 15.5334 11.0611 15.3673C11.352 15.2011 11.5151 14.8768 11.4751 14.5441Z" stroke="#808080" stroke-width="1.5" stroke-linecap="round" stroke-linejoin="round"/>
</svg>      