<svg width="31" height="31" viewBox="-6 -7 31 31" fill="none" xmlns="http://www.w3.org/2000/svg">
    <path d="M0.125 0H18.875V18H0.125V0ZM17.3385 13.707C17.2021 12.886 16.6448 12.196 14.9927 11.552C14.4177 11.293 13.7792 11.114 13.5875 10.698C13.5167 10.45 13.5062 10.316 13.5521 10.169C13.6698 9.685 14.2677 9.54 14.7365 9.674C15.0417 9.764 15.3229 9.989 15.499 10.35C16.3062 9.843 16.3062 9.843 16.8698 9.506C16.6583 9.192 16.5531 9.055 16.4125 8.92C15.9198 8.392 15.2635 8.122 14.1979 8.145L13.6479 8.212C13.1198 8.336 12.6156 8.607 12.3115 8.966C11.4208 9.934 11.6781 11.621 12.7563 12.32C13.8219 13.085 15.3823 13.253 15.5812 13.973C15.7687 14.851 14.9021 15.132 14.0448 15.031C13.4125 14.895 13.0604 14.592 12.674 14.029L11.2448 14.817C11.4083 15.176 11.5958 15.334 11.8771 15.649C13.2365 16.965 16.6354 16.898 17.2448 14.895C17.2667 14.828 17.4323 14.367 17.3031 13.658L17.3385 13.707ZM10.3208 8.273H8.56458C8.56458 9.726 8.55729 11.171 8.55729 12.627C8.55729 13.551 8.60625 14.399 8.44896 14.66C8.19167 15.177 7.52604 15.111 7.225 15.019C6.91562 14.873 6.75833 14.67 6.57604 14.378C6.52708 14.3 6.49062 14.232 6.47708 14.232L5.05208 15.076C5.29062 15.549 5.63854 15.955 6.0875 16.213C6.75521 16.596 7.65208 16.72 8.59167 16.518C9.20417 16.348 9.73229 15.999 10.0062 15.459C10.4062 14.762 10.3208 13.906 10.3177 12.95C10.326 11.409 10.3177 9.867 10.3177 8.315L10.3208 8.273Z" fill="#282828"/>
</svg>