<svg width="31" height="31" viewBox="0 2 31 31" fill="none" xmlns="http://www.w3.org/2000/svg">
    <path d="M12.1029 22.6171C8.11165 23.7279 14.5183 26.0271 19.5946 23.9088C19.1019 23.7172 18.6266 23.4838 18.1737 23.2113C16.4113 23.6125 14.5909 23.6913 12.8004 23.4438C11.1083 23.25 12.1029 22.6171 12.1029 22.6171ZM18.9875 20.4471C16.7142 20.9415 14.3746 21.055 12.0642 20.7829C10.3721 20.6021 11.4829 19.7883 11.4829 19.7883C7.09124 21.235 13.9242 22.8883 20.0596 21.08C19.6607 20.949 19.2949 20.733 18.9875 20.4471ZM21.3383 7.87918C21.3383 7.87918 12.4646 10.0879 16.7012 14.9704C16.8665 15.1686 16.9897 15.3984 17.0632 15.6457C17.1367 15.8931 17.1591 16.1528 17.1289 16.4091C17.0986 16.6653 17.0165 16.9128 16.8875 17.1362C16.7584 17.3597 16.5852 17.5545 16.3783 17.7088C16.3783 17.7088 19.5558 16.0683 18.0962 14.0146C16.6367 11.9608 15.6937 11.1471 21.3383 7.87918Z" fill="#282828"/>
    <path d="M23.4179 24.7225C23.4179 24.7225 24.1413 25.3166 22.6042 25.7816C19.6721 26.6729 10.4238 26.9441 7.85334 25.7816C6.92334 25.3812 8.65417 24.8258 9.145 24.7096C9.43595 24.6345 9.73584 24.5997 10.0363 24.6062C9.00292 23.8829 3.38417 26.0271 7.18167 26.6471C17.5796 28.4166 26.0917 25.9237 23.4179 24.7225ZM19.8529 18.4191C20.2328 18.1789 20.63 17.9674 21.0413 17.7862C21.0413 17.7862 19.0908 18.135 17.1663 18.3029C15.0967 18.5026 13.0137 18.5243 10.9404 18.3675C7.86626 17.9671 12.5808 16.7916 12.5808 16.7916C11.1621 16.7807 9.76169 17.113 8.49917 17.7604C5.83834 19.0908 15.0738 19.6721 19.8529 18.4191ZM21.0283 21.5708C21.0001 21.6147 20.9653 21.6539 20.925 21.6871C27.3833 19.9821 25.0325 15.6808 21.9325 16.7658C21.7615 16.8287 21.6131 16.9411 21.5063 17.0887C21.5063 17.0887 21.6871 17.0241 22.0617 16.9337C23.6375 16.6108 25.8333 19.0391 21.0283 21.5708ZM15.5 16.7916C14.5442 14.6346 11.2892 12.7358 15.5 9.41623C20.7829 5.26998 18.0833 2.58331 18.0833 2.58331C19.1683 6.85873 14.2083 8.1504 12.4775 10.8112C11.2763 12.6325 13.0846 14.5829 15.5 16.7916Z" fill="#282828"/>
    <path d="M21.1962 27.5383C17.2938 28.2065 13.3115 28.2674 9.39041 27.7192C9.39041 27.7192 9.98458 28.21 13.0587 28.4038C17.7217 28.7008 24.8775 28.2488 25.0583 26.04C25.0583 26.04 24.7225 26.8667 21.1962 27.5383Z" fill="#282828"/>
</svg>