<svg width="31" height="31" viewBox="0 0 31 31" fill="none" xmlns="http://www.w3.org/2000/svg">
    <path d="M12.3806 15.1022H17.971C17.971 15.1022 21.1123 15.1525 21.1123 12.0668V6.96337C21.1123 6.96337 21.5889 3.875 15.4173 3.875C9.50926 3.875 9.87738 6.43637 9.87738 6.43637L9.88513 9.09075H15.5207V9.88771H7.64668C7.64668 9.88771 3.86597 9.45888 3.86597 15.4186C3.86597 21.3784 7.16617 21.1665 7.16617 21.1665H9.13468V18.4011C9.13468 18.4011 9.02747 15.1022 12.3806 15.1022ZM12.3083 7.688C12.0394 7.688 11.7815 7.58117 11.5913 7.39102C11.4012 7.20086 11.2943 6.94296 11.2943 6.67404C11.2943 6.40512 11.4012 6.14722 11.5913 5.95707C11.7815 5.76691 12.0394 5.66008 12.3083 5.66008C12.5772 5.66008 12.8351 5.76691 13.0253 5.95707C13.2154 6.14722 13.3223 6.40512 13.3223 6.67404C13.3223 6.94296 13.2154 7.20086 13.0253 7.39102C12.8351 7.58117 12.5772 7.688 12.3083 7.688Z" fill="#282828"/>
    <path d="M23.8338 9.72882H21.8653V12.4943C21.8653 12.4943 21.9725 15.7932 18.6193 15.7932H13.029C13.029 15.7932 9.88768 15.7415 9.88768 18.8286V23.932C9.88768 23.932 9.41106 27.0204 15.5826 27.0204C21.4894 27.0204 21.1213 24.459 21.1213 24.459L21.1136 21.8059H15.478V21.0089H23.3533C23.3533 21.0089 27.134 21.4378 27.134 15.478C27.134 9.51828 23.8338 9.72882 23.8338 9.72882ZM18.6917 23.2087C18.9606 23.2087 19.2185 23.3155 19.4087 23.5056C19.5988 23.6958 19.7056 23.9537 19.7056 24.2226C19.7056 24.4915 19.5988 24.7494 19.4087 24.9396C19.2185 25.1297 18.9606 25.2366 18.6917 25.2366C18.4228 25.2366 18.1649 25.1297 17.9747 24.9396C17.7846 24.7494 17.6777 24.4915 17.6777 24.2226C17.6777 23.9537 17.7846 23.6958 17.9747 23.5056C18.1649 23.3155 18.4228 23.2087 18.6917 23.2087Z" fill="#282828"/>
</svg>