<svg width="31" height="31" viewBox="-3 -8 31 31" fill="none" xmlns="http://www.w3.org/2000/svg">
    <path d="M0.597904 12.2759H2.49499C2.53596 12.2763 2.5757 12.2618 2.60681 12.2351C2.63793 12.2085 2.6583 12.1714 2.66415 12.1309L3.08707 9.93169H4.56124C5.17833 9.94713 5.79402 9.86559 6.38582 9.69003C6.8653 9.53144 7.30302 9.26715 7.66665 8.91669C7.99322 8.62311 8.26705 8.27571 8.47624 7.88961C8.68314 7.51188 8.8299 7.10421 8.91124 6.68127C9.03962 6.23791 9.06166 5.77052 8.97558 5.31704C8.88951 4.86356 8.69773 4.43676 8.41582 4.07127C8.08918 3.73937 7.69384 3.483 7.25755 3.32017C6.82127 3.15735 6.35463 3.09202 5.8904 3.12878H2.2654C2.22192 3.13073 2.18037 3.14731 2.14748 3.17581C2.11458 3.20432 2.09227 3.24309 2.08415 3.28586L0.416654 12.0584C0.398184 12.1091 0.398184 12.1647 0.416654 12.2154C0.439711 12.2394 0.468255 12.2575 0.499828 12.268C0.531401 12.2785 0.565059 12.2812 0.597904 12.2759ZM4.04165 4.83252H5.24999C5.47988 4.80164 5.71361 4.81672 5.93763 4.87687C6.16164 4.93702 6.37149 5.04106 6.55499 5.18294C6.7604 5.40044 6.79665 5.81128 6.6879 6.39127C6.62732 6.91017 6.383 7.39023 5.99915 7.74461C5.52059 8.04762 4.95677 8.18751 4.39207 8.14336H3.4254L4.04165 4.83252ZM15.8833 3.68461C15.2292 3.20368 14.4192 2.98395 13.6117 3.06836H12.1737L12.5725 0.941692C12.5843 0.917186 12.5904 0.890342 12.5904 0.86315C12.5904 0.835958 12.5843 0.809115 12.5725 0.784609C12.5296 0.7689 12.4825 0.7689 12.4396 0.784609H10.5425C10.5015 0.784189 10.4618 0.798657 10.4307 0.825325C10.3995 0.851994 10.3792 0.88905 10.3733 0.929608L8.70582 9.71419C8.69417 9.73658 8.68809 9.76145 8.68809 9.78669C8.68809 9.81193 8.69417 9.8368 8.70582 9.85919C8.72007 9.8815 8.73973 9.89984 8.76297 9.91251C8.7862 9.92519 8.81227 9.93178 8.83874 9.93169H10.6996C10.7424 9.9318 10.7837 9.91565 10.8151 9.88649C10.8465 9.85733 10.8657 9.81735 10.8687 9.77461L11.7992 4.85669H13.1404C13.6842 4.85669 13.8775 4.97753 13.9379 5.05002C13.9871 5.16878 14.0124 5.29606 14.0124 5.42461C14.0124 5.55315 13.9871 5.68044 13.9379 5.79919L13.2008 9.71419C13.1892 9.73658 13.1831 9.76145 13.1831 9.78669C13.1831 9.81193 13.1892 9.8368 13.2008 9.85919C13.2158 9.88077 13.2356 9.89856 13.2587 9.91114C13.2818 9.92373 13.3075 9.93076 13.3337 9.93169H15.2187C15.2622 9.92974 15.3038 9.91316 15.3367 9.88465C15.3696 9.85615 15.3919 9.81737 15.4 9.77461L16.1733 5.66628C16.2981 5.33867 16.337 4.98458 16.2862 4.63771C16.2354 4.29083 16.0967 3.96273 15.8833 3.68461ZM21.345 3.06836H17.5629C17.5407 3.06671 17.5183 3.06948 17.4972 3.07649C17.476 3.08351 17.4565 3.09463 17.4396 3.10923C17.4228 3.12382 17.409 3.14161 17.399 3.16155C17.3891 3.18149 17.3832 3.20321 17.3817 3.22544L15.6175 12.0584C15.6065 12.0831 15.6008 12.1098 15.6008 12.1369C15.6008 12.164 15.6065 12.1907 15.6175 12.2154C15.6337 12.2348 15.6541 12.2503 15.6771 12.2607C15.7001 12.2712 15.7251 12.2764 15.7504 12.2759H17.72C17.763 12.2794 17.8057 12.2663 17.8394 12.2393C17.8731 12.2124 17.8952 12.1736 17.9012 12.1309L18.3483 9.93169H19.8829C20.5198 9.94569 21.1552 9.86424 21.7679 9.69003C22.2955 9.54326 22.783 9.27886 23.1937 8.91669C23.531 8.62396 23.8169 8.27679 24.0396 7.88961C24.2503 7.51243 24.4011 7.10479 24.4867 6.68127C24.6184 6.2375 24.641 5.7685 24.5526 5.3141C24.4643 4.85971 24.2676 4.43336 23.9792 4.07127C23.6375 3.72522 23.2255 3.4566 22.7711 3.28357C22.3166 3.11054 21.8303 3.03715 21.345 3.06836ZM22.0942 6.41544C22.0219 6.93866 21.7647 7.41873 21.3692 7.76878C20.8733 8.07316 20.2938 8.21275 19.7137 8.16753H18.7471L19.3996 4.83252H20.6079C21.0909 4.77332 21.5785 4.89846 21.9733 5.18294C22.1667 5.40044 22.1667 5.81128 22.0942 6.41544Z" fill="#282828"/>
</svg>