<svg width="24" height="24" viewBox="0 0 24 24" fill="none" xmlns="http://www.w3.org/2000/svg">
<path fill-rule="evenodd" clip-rule="evenodd" d="M13.6155 19H9.38547C7.48448 18.9677 5.96928 17.401 6.00047 15.5V12C5.98314 10.4263 7.02358 9.03658 8.53847 8.61V8.15C8.48798 6.46276 9.81332 5.0533 11.5005 5C13.1876 5.0533 14.513 6.46276 14.4625 8.15V8.61C15.9774 9.03658 17.0178 10.4263 17.0005 12V15.5C17.0317 17.401 15.5165 18.9677 13.6155 19Z" stroke="black" stroke-width="1.5" stroke-linecap="round" stroke-linejoin="round"/>
<path d="M10.7504 15.5C10.7504 15.9142 11.0862 16.25 11.5004 16.25C11.9146 16.25 12.2504 15.9142 12.2504 15.5H10.7504ZM12.2504 13.75C12.2504 13.3358 11.9146 13 11.5004 13C11.0862 13 10.7504 13.3358 10.7504 13.75H12.2504ZM14.27 9.33489C14.6703 9.44118 15.081 9.2028 15.1873 8.80246C15.2936 8.40212 15.0552 7.99141 14.6549 7.88512L14.27 9.33489ZM13.6164 8.5V9.25L13.6171 9.25L13.6164 8.5ZM9.38543 8.5L9.38474 9.25H9.38543V8.5ZM8.34697 7.88512C7.94663 7.99141 7.70825 8.40212 7.81454 8.80246C7.92084 9.2028 8.33155 9.44118 8.73189 9.33489L8.34697 7.88512ZM12.2504 15.5V13.75H10.7504V15.5H12.2504ZM14.6549 7.88512C14.3159 7.7951 13.9665 7.74968 13.6157 7.75L13.6171 9.25C13.8375 9.2498 14.057 9.27833 14.27 9.33489L14.6549 7.88512ZM13.6164 7.75H9.38543V9.25H13.6164V7.75ZM9.38612 7.75C9.03533 7.74968 8.68601 7.7951 8.34697 7.88512L8.73189 9.33489C8.94489 9.27833 9.16436 9.2498 9.38474 9.25L9.38612 7.75Z" fill="black"/>
</svg>
