<svg width="12" height="15" viewBox="0 0 12 15" fill="none" xmlns="http://www.w3.org/2000/svg">
<path d="M7.10766 14.6593L11.6537 9.95065C11.8712 9.73654 11.9961 9.44061 11.9999 9.12981C12.0038 8.81912 11.8864 8.5199 11.6743 8.30011C11.4623 8.08031 11.1735 7.95838 10.8735 7.96219C10.5736 7.96598 10.2877 8.09499 10.0809 8.32008L7.39761 11.1034L7.39761 1.84624C7.39761 1.43438 7.1854 1.05375 6.84104 0.847808C6.49667 0.641876 6.07244 0.641876 5.72807 0.847808C5.38369 1.05374 5.17149 1.43438 5.17149 1.84624L5.17149 11.0776L2.50478 8.32008C2.22138 8.04101 1.81738 7.93655 1.44055 8.04482C1.06373 8.15307 0.769436 8.45819 0.665224 8.84859C0.561092 9.2389 0.662334 9.65735 0.931944 9.95068L5.47799 14.6593C5.68625 14.8763 5.96973 14.9979 6.26508 14.9969C6.27433 14.9977 6.28358 14.9977 6.29273 14.9969C6.30188 14.9976 6.31113 14.9976 6.32038 14.9969C6.61553 14.9968 6.89863 14.8753 7.10747 14.6593L7.10766 14.6593Z" fill="#282828"/>
</svg>
