<svg width="26" height="24" viewBox="0 0 26 24" fill="none" xmlns="http://www.w3.org/2000/svg">
<path fill-rule="evenodd" clip-rule="evenodd" d="M14.4768 14H9.52284C8.06478 14.0724 6.77301 14.963 6.18684 16.3C5.47984 17.688 6.89084 19 8.53184 19H15.4678C17.1098 19 18.5208 17.688 17.8128 16.3C17.2267 14.963 15.9349 14.0724 14.4768 14Z" stroke="#808080" stroke-width="1.5" stroke-linecap="round" stroke-linejoin="round"/>
<path fill-rule="evenodd" clip-rule="evenodd" d="M14.9998 8C14.9998 9.65685 13.6567 11 11.9998 11C10.343 11 8.99985 9.65685 8.99985 8C8.99985 6.34315 10.343 5 11.9998 5C12.7955 5 13.5586 5.31607 14.1212 5.87868C14.6838 6.44129 14.9998 7.20435 14.9998 8Z" stroke="#808080" stroke-width="1.5" stroke-linecap="round" stroke-linejoin="round"/>
</svg>
